<svg xmlns="http://www.w3.org/2000/svg" viewBox="0 0 70.15 13.63"><defs><style>.cls-1{fill:#144873;}.cls-2{fill:#8fcd9a;}</style></defs><g id="Layer_2" data-name="Layer 2"><g id="Layer_1-2" data-name="Layer 1"><path class="cls-1" d="M8.09,3.37H5.14L4,10.14H1.78L3,3.37H0L.34,1.5H8.42Z"/><path class="cls-1" d="M10.15,8.6a1,1,0,0,0,.49-.12l-.06,1.36a2,2,0,0,1-1.28.47c-.73,0-1.2-.17-1.42-.51a1.31,1.31,0,0,1-.21-.71,3.45,3.45,0,0,1,0-.67l.72-4h2L9.8,8.15s0,.09,0,.13C9.79,8.5,9.91,8.6,10.15,8.6ZM8.68,2.41A1.56,1.56,0,0,1,9,1.29,1.4,1.4,0,0,1,10.08.94c.67,0,1,.29,1,.88a1.57,1.57,0,0,1-.34,1.11,1.48,1.48,0,0,1-1.08.35Q8.68,3.28,8.68,2.41Z"/><path class="cls-1" d="M15.24,4.21a2,2,0,0,1,1.69.65A1.79,1.79,0,0,1,17.27,6a3.19,3.19,0,0,1-.06.59L17,8a2.9,2.9,0,0,1-.88,1.73,2.44,2.44,0,0,1-1.68.6A1.62,1.62,0,0,1,13,9.77l-.65,3.71h-2l1.61-9.11h1.85l-.06.32A2.25,2.25,0,0,1,15.24,4.21ZM14,8.58a1,1,0,0,0,.63-.22A1,1,0,0,0,15,7.72l.15-.9a1.26,1.26,0,0,0,0-.3A.71.71,0,0,0,15,6.13a.65.65,0,0,0-.54-.2.91.91,0,0,0-.82.3l-.36,2A.72.72,0,0,0,14,8.58Z"/><path class="cls-1" d="M21.85,4.21a2,2,0,0,1,1.69.65A1.79,1.79,0,0,1,23.88,6a3.19,3.19,0,0,1-.06.59L23.58,8a2.9,2.9,0,0,1-.88,1.73,2.4,2.4,0,0,1-1.68.6,1.62,1.62,0,0,1-1.4-.54L19,13.48h-2l1.61-9.11h1.85l-.06.32A2.25,2.25,0,0,1,21.85,4.21ZM20.6,8.58a1,1,0,0,0,.63-.22,1,1,0,0,0,.36-.64l.15-.9a1.26,1.26,0,0,0,0-.3.62.62,0,0,0-.7-.59c-.41,0-.69.1-.81.3l-.36,2A.69.69,0,0,0,20.6,8.58Z"/><path class="cls-1" d="M26.83,8.6a1,1,0,0,0,.49-.12l-.06,1.36a2,2,0,0,1-1.28.47c-.73,0-1.2-.17-1.42-.51a1.31,1.31,0,0,1-.21-.71,3.45,3.45,0,0,1,0-.67l.72-4h2l-.68,3.78s0,.09,0,.13C26.47,8.5,26.59,8.6,26.83,8.6ZM25.36,2.41a1.56,1.56,0,0,1,.34-1.12A1.4,1.4,0,0,1,26.76.94c.67,0,1,.29,1,.88a1.57,1.57,0,0,1-.34,1.11,1.48,1.48,0,0,1-1.08.35Q25.36,3.28,25.36,2.41Z"/><path class="cls-1" d="M30.32,10.31a2.71,2.71,0,0,1-2-.63,1.66,1.66,0,0,1-.46-1.22,3.5,3.5,0,0,1,.05-.54l.82-4.64,2.19-.92-.34,2h3.31l-.3,1.69H30.28L30,7.42a1.51,1.51,0,0,0-.05.4c0,.51.24.76.72.76a.8.8,0,0,0,.64-.32,1.92,1.92,0,0,0,.35-.87h2A3.12,3.12,0,0,1,30.32,10.31Z"/><path class="cls-1" d="M36.34,7.56a2.09,2.09,0,0,0,0,.43c0,.39.22.58.65.58a1.16,1.16,0,0,0,.87-.37l.68-3.83h2l-1.06,6a4.18,4.18,0,0,1-1.21,2.41,3,3,0,0,1-2.15.89,2.79,2.79,0,0,1-1.75-.44A1.47,1.47,0,0,1,33.84,12a2.21,2.21,0,0,1,1.26-1.81,1.09,1.09,0,0,1-.86-.68,1.67,1.67,0,0,1-.11-.65,4.59,4.59,0,0,1,.06-.73l.67-3.78h2Zm.06,4.36c.52,0,.86-.48,1-1.42l.12-.7c-1.12.52-1.67,1-1.67,1.58a.52.52,0,0,0,.14.39A.5.5,0,0,0,36.4,11.92Z"/><path class="cls-2" d="M45.31,7.69c0,.55.4.82,1.2.82s1.19-.25,1.19-.75a.74.74,0,0,0-.41-.64,3.78,3.78,0,0,0-1-.42q-.59-.18-1.17-.39a2.39,2.39,0,0,1-1-.7,1.72,1.72,0,0,1-.41-1.18,2.79,2.79,0,0,1,.76-2,3.78,3.78,0,0,1,2.36-.94L47.1,0h1.8l-.26,1.5A2.44,2.44,0,0,1,50,2.18a1.8,1.8,0,0,1,.46,1.26,2.29,2.29,0,0,1-.09.66,2.06,2.06,0,0,1-.19.45l-.1.14H48A1,1,0,0,0,48.24,4q0-.78-1-.78a1.78,1.78,0,0,0-.93.2A.66.66,0,0,0,46,4a.72.72,0,0,0,.41.65,3.47,3.47,0,0,0,1,.38,11.66,11.66,0,0,1,1.17.34,2.26,2.26,0,0,1,1,.68,1.81,1.81,0,0,1,.41,1.23,2.86,2.86,0,0,1-.68,2,3.42,3.42,0,0,1-2.14.93l-.29,1.62H45l.28-1.6a2.52,2.52,0,0,1-1.84-.8,1.91,1.91,0,0,1-.36-1.21,5.23,5.23,0,0,1,.07-.75l0-.19h2.16l0,.14A2,2,0,0,0,45.31,7.69Z"/><path class="cls-1" d="M54.59,4.21a2,2,0,0,1,1.69.65A1.85,1.85,0,0,1,56.62,6a4.37,4.37,0,0,1-.06.59L56.32,8a2.9,2.9,0,0,1-.88,1.73,2.44,2.44,0,0,1-1.68.6,1.62,1.62,0,0,1-1.4-.54l-.65,3.71h-2l1.61-9.11h1.84l-.06.32A2.3,2.3,0,0,1,54.59,4.21ZM53.34,8.58A1,1,0,0,0,54,8.36a.9.9,0,0,0,.36-.64l.16-.9a1.32,1.32,0,0,0,0-.3.69.69,0,0,0-.15-.39.67.67,0,0,0-.54-.2.91.91,0,0,0-.82.3l-.36,2A.71.71,0,0,0,53.34,8.58Z"/><path class="cls-1" d="M59.27,8.29c0,.21.1.31.32.31a1.07,1.07,0,0,0,.53-.12l-.06,1.36a2,2,0,0,1-1.3.47c-.72,0-1.2-.17-1.41-.51a1.25,1.25,0,0,1-.21-.7,4.5,4.5,0,0,1,0-.68L58.5,1h2L59.28,8.15A.66.66,0,0,0,59.27,8.29Z"/><path class="cls-1" d="M63.09,8.6a1,1,0,0,0,.5-.12l-.06,1.36a2,2,0,0,1-1.29.47q-1.1,0-1.41-.51a1.24,1.24,0,0,1-.22-.71,4.47,4.47,0,0,1,0-.67l.72-4h2l-.67,3.78a.69.69,0,0,0,0,.13C62.73,8.5,62.85,8.6,63.09,8.6ZM61.62,2.41A1.56,1.56,0,0,1,62,1.29,1.4,1.4,0,0,1,63,.94c.68,0,1,.29,1,.88a1.52,1.52,0,0,1-.34,1.11,1.47,1.47,0,0,1-1.07.35C62,3.28,61.62,3,61.62,2.41Z"/><path class="cls-1" d="M66.59,10.31a2.72,2.72,0,0,1-2-.63,1.65,1.65,0,0,1-.45-1.22,3.44,3.44,0,0,1,0-.54L65,3.28l2.2-.92-.35,2h3.31l-.3,1.69H66.54L66.3,7.42a2.08,2.08,0,0,0,0,.4c0,.51.24.76.72.76a.79.79,0,0,0,.64-.32A1.92,1.92,0,0,0,68,7.39h2A3.12,3.12,0,0,1,66.59,10.31Z"/></g></g></svg>