<svg xmlns="http://www.w3.org/2000/svg" viewBox="0 0 75.16 12.4"><defs><style>.cls-1{fill:#3a3537;}.cls-2{fill:#faa31b;}.cls-3{fill:#fdb71b;}.cls-4{opacity:0.6;}.cls-5{opacity:0.4;}.cls-6{opacity:0.45;}.cls-7{fill:#ffcf1f;}.cls-8{opacity:0.15;}.cls-9{fill:#fedf5a;}.cls-10{opacity:0.1;}.cls-11{fill:#010101;}</style></defs><g id="Layer_2" data-name="Layer 2"><g id="Layer_1-2" data-name="Layer 1"><path class="cls-1" d="M11,10a.92.92,0,0,1-.44-.1.36.36,0,0,1-.2-.32V2.43H8.49a.33.33,0,0,1-.3-.18.81.81,0,0,1-.11-.41.77.77,0,0,1,.1-.4.32.32,0,0,1,.31-.18h5a.33.33,0,0,1,.32.18.76.76,0,0,1,.1.39.82.82,0,0,1-.1.42.35.35,0,0,1-.32.18H11.62V9.61a.34.34,0,0,1-.2.32A.88.88,0,0,1,11,10Z"/><path class="cls-1" d="M15.45,10a.92.92,0,0,1-.44-.1.34.34,0,0,1-.2-.32V1.67a.33.33,0,0,1,.2-.31,1,1,0,0,1,.88,0,.33.33,0,0,1,.2.31V9.61a.34.34,0,0,1-.2.32A.92.92,0,0,1,15.45,10Z"/><path class="cls-1" d="M18.31,10a.89.89,0,0,1-.44-.1.34.34,0,0,1-.2-.32V1.67a.38.38,0,0,1,.14-.29.51.51,0,0,1,.35-.12H20.5a3.36,3.36,0,0,1,1.33.26,2,2,0,0,1,1,.84,3,3,0,0,1,.35,1.54V4a2.9,2.9,0,0,1-.36,1.54,2.1,2.1,0,0,1-1,.85,3.56,3.56,0,0,1-1.37.26H18.94v3a.32.32,0,0,1-.2.32A.88.88,0,0,1,18.31,10Zm.63-4.39h1.49a1.42,1.42,0,0,0,1.05-.38,1.64,1.64,0,0,0,.38-1.18V3.94a1.6,1.6,0,0,0-.38-1.17,1.42,1.42,0,0,0-1.05-.38H18.94Z"/><path class="cls-1" d="M24.86,10a.92.92,0,0,1-.44-.1.34.34,0,0,1-.2-.32V1.67a.38.38,0,0,1,.14-.29.51.51,0,0,1,.35-.12h2.34a3.44,3.44,0,0,1,1.34.26,2,2,0,0,1,.94.84,3,3,0,0,1,.35,1.54V4a2.9,2.9,0,0,1-.36,1.54,2.1,2.1,0,0,1-1,.85A3.56,3.56,0,0,1,27,6.65H25.49v3a.33.33,0,0,1-.19.32A1,1,0,0,1,24.86,10Zm.63-4.39H27A1.42,1.42,0,0,0,28,5.26a1.64,1.64,0,0,0,.38-1.18V3.94A1.6,1.6,0,0,0,28,2.77,1.42,1.42,0,0,0,27,2.39H25.49Z"/><path class="cls-1" d="M31.41,10a.92.92,0,0,1-.44-.1.34.34,0,0,1-.2-.32V1.67a.33.33,0,0,1,.2-.31,1,1,0,0,1,.88,0,.33.33,0,0,1,.2.31V9.61a.34.34,0,0,1-.2.32A.92.92,0,0,1,31.41,10Z"/><path class="cls-1" d="M35.87,10a1,1,0,0,1-.44-.1.35.35,0,0,1-.19-.32V2.43H33.38a.33.33,0,0,1-.3-.18A.81.81,0,0,1,33,1.84a.87.87,0,0,1,.09-.4.34.34,0,0,1,.32-.18h5a.33.33,0,0,1,.32.18.87.87,0,0,1,.1.39.82.82,0,0,1-.11.42.32.32,0,0,1-.31.18H36.51V9.61a.36.36,0,0,1-.2.32A.92.92,0,0,1,35.87,10Z"/><path class="cls-1" d="M42.24,10a.88.88,0,0,1-.43-.1.34.34,0,0,1-.2-.32v-3a.2.2,0,0,0,0-.13L39.09,2a.22.22,0,0,1,0-.1s0-.06,0-.08a.36.36,0,0,1,.14-.27,1,1,0,0,1,.31-.19,1.21,1.21,0,0,1,.36-.07.43.43,0,0,1,.24.07.67.67,0,0,1,.17.22l2,3.8,2-3.8a.85.85,0,0,1,.18-.22.43.43,0,0,1,.24-.07,1.27,1.27,0,0,1,.36.07,1.13,1.13,0,0,1,.32.19.39.39,0,0,1,.13.27.25.25,0,0,1,0,.08.26.26,0,0,1,0,.1L42.92,6.45a.2.2,0,0,0,0,.13v3a.34.34,0,0,1-.2.32A.89.89,0,0,1,42.24,10Z"/><path class="cls-1" d="M55.54,10a1,1,0,0,1-.44-.1.33.33,0,0,1-.19-.32V1.67A.37.37,0,0,1,55,1.38a.52.52,0,0,1,.36-.12h2.34a3.36,3.36,0,0,1,1.33.26,2,2,0,0,1,1,.84,3,3,0,0,1,.34,1.54V4A2.9,2.9,0,0,1,60,5.54a2.1,2.1,0,0,1-1,.85,3.52,3.52,0,0,1-1.37.26H56.18v3a.34.34,0,0,1-.2.32A.92.92,0,0,1,55.54,10Zm.64-4.39h1.48a1.42,1.42,0,0,0,1.05-.38,1.6,1.6,0,0,0,.38-1.18V3.94a1.56,1.56,0,0,0-.38-1.17,1.42,1.42,0,0,0-1.05-.38H56.18Z"/><path class="cls-1" d="M62,10a.72.72,0,0,1-.38-.1.36.36,0,0,1-.18-.32V1.67a.31.31,0,0,1,.2-.31.88.88,0,0,1,.43-.1.92.92,0,0,1,.44.1.33.33,0,0,1,.2.31V8.91h3.12a.31.31,0,0,1,.29.17.86.86,0,0,1,.09.39.82.82,0,0,1-.09.38.32.32,0,0,1-.29.18Z"/><path class="cls-1" d="M67.79,10a1,1,0,0,1-.44-.1.33.33,0,0,1-.19-.32V1.67a.32.32,0,0,1,.19-.31,1,1,0,0,1,.44-.1.92.92,0,0,1,.44.1.33.33,0,0,1,.2.31V9.61a.34.34,0,0,1-.2.32A.92.92,0,0,1,67.79,10Z"/><path class="cls-1" d="M72.26,10a.92.92,0,0,1-.44-.1.36.36,0,0,1-.2-.32V2.43H69.76a.33.33,0,0,1-.3-.18.81.81,0,0,1-.11-.41.77.77,0,0,1,.1-.4.32.32,0,0,1,.31-.18h5a.33.33,0,0,1,.32.18.76.76,0,0,1,.1.39.82.82,0,0,1-.1.42.35.35,0,0,1-.32.18H72.89V9.61a.34.34,0,0,1-.2.32A.88.88,0,0,1,72.26,10Z"/><path class="cls-2" d="M53.51,6.43a2.09,2.09,0,0,0-.57-.76,3.68,3.68,0,0,0-.77-.51C52,5.08,51.87,5,51.72,5V2.34a2.26,2.26,0,0,1,.41.09,2.85,2.85,0,0,1,.49.23.67.67,0,0,0,.35.11.41.41,0,0,0,.3-.12.88.88,0,0,0,.17-.28.83.83,0,0,0,.06-.28.5.5,0,0,0-.23-.41,1.89,1.89,0,0,0-.57-.27A4.36,4.36,0,0,0,52,1.27l-.26,0V.53a.47.47,0,0,0-.18-.41A.64.64,0,0,0,51.16,0a.69.69,0,0,0-.39.12.49.49,0,0,0-.17.41V1.3l-.26,0a3,3,0,0,0-.9.38,1.86,1.86,0,0,0-.65.71,2.27,2.27,0,0,0-.24,1.1,2.3,2.3,0,0,0,.2,1,2.2,2.2,0,0,0,.56.68,3.49,3.49,0,0,0,.77.46l.52.23V9a1.47,1.47,0,0,1-.5-.12,1.84,1.84,0,0,1-.53-.33l-.37-.33A.49.49,0,0,0,48.88,8a.4.4,0,0,0-.27.11,1.05,1.05,0,0,0-.2.27.61.61,0,0,0-.08.3.93.93,0,0,0,.33.63,2.72,2.72,0,0,0,.94.56,3.86,3.86,0,0,0,1,.2v.72a.51.51,0,0,0,.17.41.63.63,0,0,0,.39.13.58.58,0,0,0,.38-.13.48.48,0,0,0,.18-.41v-.76a2.49,2.49,0,0,0,.67-.21,2.09,2.09,0,0,0,1-.84,2.65,2.65,0,0,0,.36-1.44A2.76,2.76,0,0,0,53.51,6.43Zm-2.93-2A1.86,1.86,0,0,1,50,4a.92.92,0,0,1-.21-.63A.94.94,0,0,1,50,2.79a1.26,1.26,0,0,1,.53-.35l.06,0V4.47Zm1.67,4a1.14,1.14,0,0,1-.53.41V6.48a1.81,1.81,0,0,1,.52.47,1.36,1.36,0,0,1,.2.76A1.23,1.23,0,0,1,52.25,8.42Z"/><g id="Coin"><path class="cls-3" d="M2.43,1.17H4c1.21,0,2.2,2,2.2,4.4S5.22,10,4,10H2.43"/><g class="cls-4"><path class="cls-2" d="M6.09,7H2.43v3H4C5,10,5.79,8.73,6.09,7Z"/></g><g class="cls-5"><path class="cls-2" d="M6.21,5.57a8,8,0,0,0-.14-1.5H2.43V5.78H6.2A1.48,1.48,0,0,0,6.21,5.57Z"/></g><g class="cls-6"><path class="cls-7" d="M5.33,2.06H2.43v.85H5.76A4.22,4.22,0,0,0,5.33,2.06Z"/></g><path class="cls-2" d="M4,10.2H2.43a.23.23,0,0,1,0-.46H4c1.06,0,2-1.91,2-4.17s-.9-4.16-2-4.16H2.43a.23.23,0,0,1-.23-.24A.23.23,0,0,1,2.43.94H4A2.11,2.11,0,0,1,5.77,2.36a7.35,7.35,0,0,1,.67,3.21,7.42,7.42,0,0,1-.67,3.22A2.12,2.12,0,0,1,4,10.2Z"/><ellipse class="cls-7" cx="2.43" cy="5.57" rx="2.2" ry="4.4"/><path class="cls-2" d="M2.43,10.2c-.68,0-1.3-.5-1.76-1.41A7.42,7.42,0,0,1,0,5.57,7.35,7.35,0,0,1,.67,2.36C1.13,1.44,1.75.94,2.43.94s1.31.5,1.77,1.42a7.35,7.35,0,0,1,.67,3.21A7.42,7.42,0,0,1,4.2,8.79,2.14,2.14,0,0,1,2.43,10.2Zm0-8.79c-1.06,0-2,1.9-2,4.16s.9,4.17,2,4.17,2-1.91,2-4.17S3.5,1.41,2.43,1.41Z"/><g class="cls-8"><path class="cls-2" d="M3.23,1.48a7.18,7.18,0,0,1,.55,2.9c0,2.43-1,4.4-2.2,4.4a1.28,1.28,0,0,1-.8-.31c.4.92,1,1.5,1.65,1.5,1.22,0,2.2-2,2.2-4.4A5.42,5.42,0,0,0,3.23,1.48Z"/><path class="cls-2" d="M2.43,10.2C1.7,10.2,1,9.61.57,8.57a.22.22,0,0,1,.07-.28.23.23,0,0,1,.29,0,1,1,0,0,0,.65.25c1.07,0,2-1.91,2-4.16A7.15,7.15,0,0,0,3,1.57a.25.25,0,0,1,.07-.28.23.23,0,0,1,.29,0c.9.71,1.49,2.39,1.49,4.28A7.42,7.42,0,0,1,4.2,8.79,2.14,2.14,0,0,1,2.43,10.2ZM1.33,9a1.42,1.42,0,0,0,1.1.75c1.07,0,2-1.91,2-4.17a7.09,7.09,0,0,0-.54-2.82A8.66,8.66,0,0,1,4,4.38a7.35,7.35,0,0,1-.67,3.21C2.89,8.51,2.26,9,1.58,9Z"/></g><g class="cls-8"><path class="cls-2" d="M4.61,5a4.83,4.83,0,0,1-1,2.37c-1.06,1.19-2.4.43-3-1.69A7.74,7.74,0,0,1,.36,4.11,8.32,8.32,0,0,0,.52,7.72c.59,2.12,1.93,2.88,3,1.69A6.48,6.48,0,0,0,4.61,5Z"/><path class="cls-2" d="M2.43,10.2l-.3,0C1.33,10,.66,9.12.29,7.78A8.56,8.56,0,0,1,.13,4.07a.24.24,0,0,1,.24-.2.23.23,0,0,1,.22.22,7.82,7.82,0,0,0,.26,1.5c.32,1.14.88,1.91,1.49,2.05a1.16,1.16,0,0,0,1.1-.46,4.64,4.64,0,0,0,.94-2.25.24.24,0,0,1,.47,0A6.59,6.59,0,0,1,3.68,9.56,1.69,1.69,0,0,1,2.43,10.2ZM.48,6A8,8,0,0,0,.74,7.66c.32,1.14.88,1.91,1.5,2.05a1.14,1.14,0,0,0,1.09-.46,4.89,4.89,0,0,0,1-2.58,3.58,3.58,0,0,1-.53.83,1.59,1.59,0,0,1-1.56.6A2.88,2.88,0,0,1,.48,6Z"/></g><g class="cls-4"><path class="cls-9" d="M3.45,3.88a.38.38,0,0,1-.35-.26,3.17,3.17,0,0,0-.22-.53,1.31,1.31,0,0,0-.49-.6A.35.35,0,0,1,2.21,2a.35.35,0,0,1,.48-.18c.72.33,1.07,1.45,1.11,1.58a.36.36,0,0,1-.25.45Z"/></g><g class="cls-10"><path class="cls-11" d="M3.31,11.13c1.76,0,2.29.34,2.32.67s-.38.6-2.32.6c-1.76,0-2.5-.17-2.5-.64S1.74,11.13,3.31,11.13Z"/></g></g></g></g></svg>