<?xml version="1.0" standalone="no"?>
<!DOCTYPE svg PUBLIC "-//W3C//DTD SVG 20010904//EN"
 "http://www.w3.org/TR/2001/REC-SVG-20010904/DTD/svg10.dtd">
<svg version="1.0" xmlns="http://www.w3.org/2000/svg"
 width="426.000000pt" height="426.000000pt" viewBox="0 0 426.000000 426.000000"
 preserveAspectRatio="xMidYMid meet">
<metadata>
Created by potrace 1.14, written by Peter Selinger 2001-2017
</metadata>
<g transform="translate(0.000000,426.000000) scale(0.100000,-0.100000)"
fill="#000000" stroke="none">
<path d="M1735 4245 c-79 -17 -126 -38 -206 -91 -178 -118 -341 -363 -448
-677 -22 -64 -40 -119 -41 -122 0 -3 0 -6 -1 -7 0 -2 -2 -10 -4 -18 -1 -8 -8
-33 -13 -55 -6 -22 -14 -55 -17 -74 -3 -19 -7 -37 -9 -40 -2 -3 -7 -26 -10
-51 -3 -25 -8 -54 -10 -66 -40 -203 -50 -613 -21 -859 18 -153 30 -222 61
-355 81 -348 216 -628 388 -802 100 -102 153 -137 266 -179 l77 -28 364 -1
c242 0 383 3 419 11 165 35 327 159 454 349 50 74 156 280 156 302 0 8 4 18 9
24 9 9 76 209 85 255 3 13 7 33 10 44 32 126 62 317 74 465 15 189 6 540 -17
694 -6 34 -12 79 -16 101 -3 22 -7 47 -10 55 -2 8 -6 31 -9 50 -8 48 -12 67
-26 120 -7 25 -14 53 -15 62 -12 60 -86 253 -141 365 -134 275 -305 450 -500
514 -66 21 -87 22 -429 24 -262 2 -376 -1 -420 -10z"/>
<path d="M1540 346 c0 -2 8 -10 18 -17 15 -13 16 -12 3 4 -13 16 -21 21 -21
13z"/>
<path d="M1360 300 c-9 -6 -10 -10 -3 -10 6 0 15 5 18 10 8 12 4 12 -15 0z"/>
<path d="M1420 306 c0 -2 8 -10 18 -17 15 -13 16 -12 3 4 -13 16 -21 21 -21
13z"/>
<path d="M1840 300 c-9 -6 -10 -10 -3 -10 6 0 15 5 18 10 8 12 4 12 -15 0z"/>
<path d="M1910 301 c0 -6 4 -13 10 -16 6 -3 7 1 4 9 -7 18 -14 21 -14 7z"/>
<path d="M2030 276 c0 -2 8 -10 18 -17 15 -13 16 -12 3 4 -13 16 -21 21 -21
13z"/>
<path d="M1310 259 c0 -5 5 -7 10 -4 6 3 10 8 10 11 0 2 -4 4 -10 4 -5 0 -10
-5 -10 -11z"/>
<path d="M2390 236 c0 -2 8 -10 18 -17 15 -13 16 -12 3 4 -13 16 -21 21 -21
13z"/>
<path d="M1635 189 c-4 -6 -5 -12 -2 -15 2 -3 7 2 10 11 7 17 1 20 -8 4z"/>
<path d="M2676 173 c-6 -14 -5 -15 5 -6 7 7 10 15 7 18 -3 3 -9 -2 -12 -12z"/>
<path d="M2790 116 c0 -2 8 -10 18 -17 15 -13 16 -12 3 4 -13 16 -21 21 -21
13z"/>
<path d="M1916 98 c3 -5 10 -6 15 -3 13 9 11 12 -6 12 -8 0 -12 -4 -9 -9z"/>
<path d="M2670 106 c0 -2 7 -7 16 -10 8 -3 12 -2 9 4 -6 10 -25 14 -25 6z"/>
<path d="M2430 36 c0 -2 8 -10 18 -17 15 -13 16 -12 3 4 -13 16 -21 21 -21 13z"/>
</g>
</svg>
